<svg width="60" height="60" viewBox="0 0 60 60" fill="none" xmlns="http://www.w3.org/2000/svg">
<path d="M58.5406 33.0407C58.1944 32.6597 58.0415 32.1319 57.844 31.6644C57.5835 31.0479 57.2698 30.4594 56.9695 29.862C56.3964 28.7214 55.66 27.688 55.0547 26.5671C54.4237 25.3983 53.7462 24.2592 53.1027 23.0977C52.4915 21.9944 52.1175 20.7961 51.432 19.7341C51.0962 19.214 50.768 18.7145 50.5561 18.1301C50.3268 17.4985 50.0847 16.9756 49.6677 16.4439C48.8733 15.4308 48.6554 14.176 48.0064 13.0852C47.6766 12.5309 47.5482 12.0147 47.3238 11.4221C47.1053 10.8454 46.7282 10.3461 46.4122 9.82145C46.1154 9.32867 45.9608 8.84375 45.779 8.30458C45.6136 7.81438 45.2906 7.40388 45.1607 6.90279C44.8114 5.55431 43.966 4.42451 43.5117 3.10522C43.4089 2.80651 43.3973 2.48812 43.2767 2.19491C43.1697 1.93523 42.9799 1.7305 42.8601 1.47878C42.6357 1.00746 42.5455 0.521014 42.1797 0.125625C42.0836 0.0216797 41.9056 -0.0291795 41.7701 0.0173438C41.3553 0.159609 40.8859 -0.0046874 40.452 0.0336328C40.1012 0.0646873 39.7541 0.13746 39.4039 0.174843C39.0748 0.210116 38.7471 0.25453 38.4184 0.291327C37.914 0.347694 37.419 0.249491 36.9139 0.284882C36.0392 0.345936 35.1808 0.554412 34.308 0.63574C33.3019 0.729489 32.3098 0.803434 31.3094 0.962106C29.3387 1.27488 27.3741 1.67214 25.4304 2.1239C24.6319 2.30964 23.873 2.61104 23.0573 2.71288C22.0527 2.83839 21.0602 3.06081 20.0664 3.25182C18.2466 3.60151 16.3927 3.81631 14.5975 4.28459C13.7805 4.49776 12.9734 4.72721 12.1448 4.89525C11.2396 5.07889 10.3106 5.07115 9.44938 5.42459C7.96497 6.03396 6.42185 6.90361 5.25713 8.01395C4.09803 9.11903 2.9612 10.3126 2.49902 11.8754C2.22902 12.7879 1.79976 13.6297 1.56152 14.5635C1.30031 15.5866 1.22355 16.4574 1.29527 17.5047C1.32058 17.8729 1.28894 18.2362 1.30383 18.6024C1.31062 18.7734 1.33558 18.9354 1.41281 19.0893C1.49203 19.2473 1.54547 19.3345 1.58683 19.4833C1.72769 19.9879 1.93875 20.4353 2.25679 20.8149C2.25902 20.8243 2.26054 20.8343 2.26288 20.8436C2.43409 21.5051 2.65933 21.979 2.98675 22.5751C3.55007 23.601 4.07846 24.7977 3.98553 25.9733C3.89026 27.1785 3.96397 28.2934 5.1342 28.9338C5.59838 29.1878 5.96014 29.5432 6.45138 29.7724C6.71845 29.8971 7.06498 30.0144 7.27064 30.2395C7.50782 30.4989 7.57544 30.9292 7.65032 31.2623C7.96966 32.6811 8.26896 34.025 8.88946 35.3477C9.15149 35.9063 9.36114 36.485 9.61379 37.0476C9.91649 37.7215 10.3319 38.3261 10.6715 38.9799C10.8545 39.3321 11.1216 39.7072 11.0633 40.0886C10.9741 40.6708 10.7649 41.0786 10.8891 41.6934C11.1256 42.8632 11.8794 43.6967 12.7686 44.4176C13.4009 44.9299 13.5503 45.6731 13.7868 46.418C14.0208 47.1558 14.1878 47.9054 14.4233 48.6424C14.6409 49.3234 14.9 49.9847 15.119 50.6644C15.304 51.2387 15.5124 51.7678 15.8807 52.2272C15.9602 52.5344 16.0669 52.8334 16.2379 53.1231C16.621 53.7717 17.1584 54.4128 17.734 54.8977C18.2668 55.3465 18.9088 55.502 19.4765 55.8756C19.7596 56.0617 19.9874 56.3054 20.2907 56.4654C20.638 56.6486 21.0245 56.7864 21.3914 56.924C22.8798 57.4821 24.4743 57.1875 25.9906 56.9085C26.7381 56.7709 27.5045 56.62 28.2286 56.3857C28.6247 56.2578 29.004 56.0836 29.4009 55.9583C29.7483 55.8487 30.1046 55.8256 30.418 55.6319C30.5414 55.5556 30.602 55.4321 30.6041 55.3074C30.6563 55.9553 30.6158 56.6285 30.4962 57.2274C30.3616 57.9004 29.8857 58.7331 30.1337 59.4246C30.6029 60.7331 31.9752 59.469 32.5287 58.9606C33.0436 58.4876 33.5632 57.9956 33.8319 57.3377C33.9624 57.0186 34.0513 56.676 34.1126 56.3282C34.6051 57.3643 35.463 58.7233 36.327 58.239C37.0032 57.8603 36.8193 56.6388 36.7388 56.0309C36.6597 55.4338 36.5674 54.8228 36.4596 54.2169C36.6668 54.1772 36.8809 54.1565 37.0802 54.103C37.575 53.9703 38.0486 53.7551 38.5416 53.6114C39.5912 53.3057 40.6562 53.0489 41.7089 52.7533C43.7683 52.1752 45.7863 51.5169 47.8609 50.9894C50.0116 50.4426 52.1898 49.9473 54.3144 49.3081C55.0845 49.0764 55.9684 48.8193 56.514 48.1872C56.9759 47.6522 57.4697 46.7858 57.355 46.0599C57.2412 45.3403 56.6882 44.6207 56.1169 44.1901C55.7425 43.9079 55.1478 43.6785 54.7079 43.3545C54.7026 43.3079 54.6836 43.2619 54.6476 43.2207C54.6271 43.1574 54.5938 43.0988 54.5488 43.0421C54.5242 43.0108 54.5119 42.9897 54.466 42.9182C54.3899 42.8002 54.3161 42.6833 54.2475 42.561C54.2209 42.493 54.1824 42.4294 54.1255 42.3561C54.0885 42.3086 54.0515 42.261 54.0131 42.2145C53.9008 42.0774 53.7054 42.0423 53.5343 42.0818C53.5508 41.8096 53.5902 41.5318 53.6523 41.233C53.9637 39.7331 54.7486 38.3986 55.6268 37.1524C56.3521 36.979 57.0469 36.7281 57.6148 36.2056C58.3153 35.561 58.8237 34.6872 58.7078 33.7212C58.7617 33.4922 58.7218 33.24 58.5406 33.0407ZM37.3693 1.63745C38.197 1.62257 38.9736 1.51277 39.7902 1.37003C40.231 1.29304 40.6432 1.12546 41.0878 1.0698C41.3115 1.04179 41.5149 1.00945 41.7139 0.947809C41.8719 1.30417 41.8859 1.7489 42.0275 2.09999C42.2512 2.65499 42.2341 3.21456 42.4157 3.78713C42.5443 4.1926 42.7071 4.58424 42.877 4.97225C42.2015 4.84768 41.5203 4.81123 40.8495 4.62362C40.1558 4.42944 39.6014 4.0487 38.9785 3.70557C38.3539 3.36151 37.7471 3.10522 37.372 2.45929C37.2173 2.19269 37.0972 1.92128 36.9608 1.66148C37.0971 1.64917 37.2334 1.63992 37.3693 1.63745ZM13.6942 43.6768C13.5335 43.5492 13.3638 43.4302 13.1917 43.3087C12.6185 42.9043 12.2152 42.391 12.0073 41.7091C11.7785 40.9585 12.1776 40.8436 12.4842 40.287C12.6266 40.0285 12.6474 39.7734 12.6031 39.5224C12.9885 38.628 13.3803 37.7345 13.7861 36.8467C13.9623 36.4616 14.0792 36.0364 14.3051 35.6785C14.5502 35.2904 14.8818 34.9462 15.1648 34.5847C15.7187 33.8774 16.433 33.3633 17.0009 32.6729C17.1066 32.5444 17.0513 32.297 16.8509 32.3106C16.025 32.3672 15.1721 33.2292 14.664 33.8256C14.3507 34.1933 14.0342 34.5612 13.7319 34.9379C13.3995 35.3519 13.2427 35.7787 13.0218 36.2538C12.7031 36.9388 12.3952 37.6265 12.0881 38.3155C11.5464 37.2959 10.9413 36.3206 10.439 35.2754C10.1613 34.6976 9.81008 34.1639 9.50856 33.5998C9.11587 32.8646 8.90833 32.0647 8.73032 31.2554C8.65884 30.9301 8.59427 30.5877 8.48751 30.2636C8.60704 30.1684 8.61442 29.9688 8.52958 29.8369C8.62778 29.5031 8.76958 29.1935 8.85665 28.853C8.9654 28.4271 8.99012 27.9874 9.15395 27.5761C9.29399 27.2243 9.39208 26.8807 9.51934 26.528C9.67215 26.1042 10.036 25.6265 10.2647 25.2223C10.7712 24.3263 11.6395 23.5731 12.3776 22.8698C13.1058 22.1761 14.0008 21.6749 14.7182 20.9871C14.8687 20.843 14.7502 20.5929 14.5528 20.5878C13.4308 20.5582 12.4248 21.4339 11.6285 22.1206C10.7839 22.849 9.73696 23.6032 9.17563 24.5857C9.01145 24.8731 8.89426 25.1489 8.70489 25.4248C8.55677 25.6404 8.42458 25.8345 8.34454 26.0884C8.21974 26.4842 8.10231 26.8558 7.95618 27.2467C7.75544 27.7841 7.75825 28.3593 7.62935 28.9104C7.61833 28.9574 7.60919 29.002 7.60029 29.0467C7.37951 28.8833 7.14279 28.7374 6.91709 28.5795C6.67427 28.4094 6.54138 28.1991 6.33666 27.9981C6.16158 27.8263 5.87916 27.7429 5.72576 27.5588C5.37455 27.1368 5.56334 26.3699 5.60225 25.8795C5.63412 25.4797 5.61912 25.0796 5.50205 24.7095C5.75061 24.287 5.9081 23.8092 6.15982 23.3305C6.74529 22.217 7.44384 21.0667 8.19032 20.0525C8.87446 19.1232 10.1183 18.4878 11.1522 18.0201C11.6681 17.7869 12.6578 17.4848 12.5535 16.7696C12.5159 16.5119 12.1932 16.5073 12.0351 16.6326C11.7498 16.859 11.3131 16.8748 10.9752 16.9876C10.5036 17.1447 10.0157 17.3379 9.59563 17.6058C8.71098 18.1696 7.88915 18.6487 7.26361 19.5107C6.56845 20.4687 5.93412 21.5373 5.4035 22.593C5.21248 22.973 5.05451 23.3493 4.94975 23.7577C4.64834 23.2838 4.41667 22.7855 4.12135 22.2876C3.9294 21.9641 3.68073 21.6817 3.48784 21.3603C3.45397 21.304 3.42456 21.246 3.39491 21.1881C3.45339 21.0523 3.44835 20.8855 3.33409 20.7578C2.76409 20.1207 2.97608 19.396 2.75554 18.6508C2.71558 18.5157 2.69648 18.496 2.68851 18.5174C2.68722 18.4938 2.6857 18.4668 2.68394 18.435C2.67796 18.3352 2.70386 18.2202 2.70679 18.1212C2.72015 17.6949 2.66484 17.2674 2.6523 16.8419C2.60355 15.2021 3.44893 13.7821 3.88698 12.2578C4.30745 10.7947 5.59486 9.54781 6.73603 8.58524C7.33146 8.08309 8.04067 7.76505 8.71309 7.3822C8.86743 7.29431 9.01813 7.20935 9.16837 7.12743C9.19731 7.98759 9.772 8.9436 10.1302 9.66043C10.3883 10.1763 10.7104 10.6446 10.9946 11.1448C11.306 11.6927 11.4909 12.3042 11.7528 12.8764C12.2929 14.056 13.0924 15.0889 13.6872 16.2384C13.9502 16.7467 14.1353 17.2651 14.4691 17.734C14.856 18.2775 15.1968 18.7334 15.4013 19.382C16.2523 22.0797 17.0311 24.8166 17.7843 27.544C18.1612 28.9086 18.5749 30.2624 18.9742 31.6203C19.341 32.8671 19.6261 34.1679 20.0732 35.3874C20.1547 35.6096 20.2565 35.8178 20.3668 36.0208C19.3306 36.2153 18.5627 36.4439 17.7825 37.2558C16.9987 38.0715 16.3279 38.9612 15.7354 39.9236C15.4172 40.4404 15.1378 40.9851 14.8097 41.4942C14.5535 41.8918 14.2559 42.2506 14.0615 42.6857C13.9017 43.0422 13.7811 43.348 13.6942 43.6768ZM30.4184 54.9646C29.8841 54.6229 29.2335 54.8911 28.6843 55.0856C27.9962 55.3293 27.3152 55.5264 26.5942 55.6498C25.1733 55.8932 23.4668 56.2033 22.0564 55.8006C21.3885 55.6101 20.8306 55.338 20.2715 54.9372C19.725 54.5453 19.0469 54.4285 18.5158 54.0081C18.005 53.6037 17.4469 53.0989 17.0396 52.5621C17.3729 52.3637 17.5708 51.9598 17.2902 51.5759C16.9327 51.0866 16.8052 50.5034 16.6011 49.942C16.3782 49.3287 16.1415 48.7256 15.9223 48.1102C15.6894 47.4559 15.5681 46.7652 15.3031 46.1227C15.0434 45.4929 14.6812 44.8791 14.3039 44.3129C14.2893 44.2908 14.273 44.271 14.2579 44.2499C14.4411 43.8377 14.6021 43.4092 14.8158 43.0039C15.0527 42.555 15.3916 42.1728 15.6523 41.7391C15.9087 41.3124 16.1453 40.876 16.4094 40.4529C16.994 39.5159 17.6443 38.6785 18.3972 37.8709C19.0197 37.203 19.8307 36.8607 20.5163 36.2879C20.6788 36.5676 20.8491 36.8434 20.9972 37.1368C21.3182 37.773 21.5103 38.4617 21.8105 39.1072C22.1029 39.7356 22.4268 40.37 22.7701 40.9716C23.0642 41.4868 23.4941 41.7915 23.8599 42.2291C24.167 42.5967 24.6359 42.1838 24.5782 41.8108C24.5145 41.3981 24.2244 41.0869 24.0079 40.7435C23.6712 40.2092 23.3892 39.6429 23.0936 39.0849C22.5357 38.0317 22.2196 36.8854 21.5758 35.8744C20.8854 34.79 20.6818 33.4348 20.2832 32.2243C19.867 30.96 19.414 29.7076 18.9841 28.4479C18.0741 25.7813 17.1531 23.0997 16.3968 20.3848C16.2432 19.8334 16.1283 19.2702 15.9153 18.7369C15.7108 18.2252 15.3877 17.8241 15.0714 17.3809C14.4058 16.448 13.985 15.2956 13.4028 14.2995C13.0102 13.6277 12.6296 12.9541 12.3413 12.2298C12.111 11.6506 11.8984 11.0806 11.5658 10.5507C11.2064 9.97789 10.8727 9.41422 10.5618 8.81247C10.4067 8.512 10.2658 8.19688 10.0981 7.90345C9.91379 7.58118 9.6043 7.31364 9.50329 6.95083C9.9725 6.71833 10.4502 6.54267 11.0117 6.49673C12.6977 6.35845 14.2985 5.74814 15.9452 5.4124C17.6529 5.06424 19.3904 4.85682 21.1061 4.54955C21.9068 4.40612 22.701 4.27369 23.5077 4.17244C24.3877 4.06194 25.2239 3.71706 26.0892 3.52674C27.8673 3.13557 29.6477 2.77042 31.4423 2.46315C32.4808 2.28538 33.5147 2.18905 34.5573 2.05452C35.1812 1.97413 35.81 1.82284 36.4399 1.72581C36.577 2.22784 36.6397 2.75706 36.9505 3.1971C37.374 3.79698 38.0563 4.08737 38.6668 4.45041C39.99 5.23709 41.4679 5.9558 43.0659 5.71076C43.1114 5.70384 43.1506 5.68814 43.184 5.66658C43.4149 6.19439 43.63 6.7263 43.7617 7.28786C43.8748 7.76985 44.1501 8.15071 44.3246 8.60411C44.5306 9.13942 44.6305 9.68457 44.8953 10.2035C45.1587 10.7196 45.5172 11.1863 45.768 11.7079C46.0461 12.2859 46.0973 12.9182 46.416 13.4916C46.7268 14.0503 46.9954 14.5699 47.2136 15.1729C47.434 15.7825 47.6773 16.3989 48.0429 16.9379C48.4173 17.4904 48.7798 17.9167 49.0031 18.5576C49.2031 19.1323 49.4605 19.655 49.7849 20.1698C50.1113 20.6877 50.4583 21.1884 50.6904 21.7579C50.9462 22.3852 51.1952 23.0044 51.511 23.6058C52.1294 24.784 52.8324 25.9146 53.4502 27.094C53.9408 28.0307 54.5137 28.9144 55.039 29.8286C55.0079 29.8461 54.9775 29.8643 54.9477 29.8855C54.6467 30.1002 54.4246 30.4457 54.1649 30.7078C53.9113 30.9639 53.6507 31.2199 53.4403 31.5141C53.1948 31.8573 53.1232 32.2048 52.9578 32.5821C52.8321 32.8685 52.5892 33.0793 52.4554 33.3646C52.2989 33.6984 52.2133 34.087 52.1329 34.4436C52.0103 34.987 51.8005 35.7435 51.9653 36.319C51.7362 36.392 51.507 36.4651 51.2746 36.5284C50.7011 36.6847 50.1468 36.6935 49.5614 36.739C48.4397 36.8261 47.3076 37.1783 46.2503 37.5432C45.1621 37.9188 44.0834 38.0769 42.9739 38.3497C42.4382 38.4813 41.913 38.6517 41.3956 38.8421C41.1189 38.944 40.8448 39.0766 40.5608 39.1564C40.2318 39.2489 39.8884 39.2481 39.5547 39.3195C39.0777 39.4216 38.6558 39.6903 38.1906 39.8364C37.655 40.0047 37.1069 40.14 36.5558 40.2455C35.4486 40.4574 34.3069 40.6184 33.1911 40.7898C32.5918 40.8819 31.9946 40.9271 31.403 41.0695C30.8003 41.2145 30.2167 41.4269 29.6149 41.5782C29.1465 41.696 28.691 41.795 28.2488 41.9642C28.0822 41.9523 27.9151 41.9485 27.7463 41.9711C26.6327 42.1216 25.484 42.6748 24.4326 43.0626C22.5889 43.7425 20.6157 44.706 19.5289 46.446C19.0216 47.2584 18.9599 48.1993 18.9363 49.1291C18.9105 50.1469 18.9184 51.0351 19.3864 51.9636C20.1817 53.5414 22.3289 54.0395 23.9548 54.0175C24.0551 54.0161 24.1351 53.983 24.1964 53.9329C24.6532 53.9555 25.1121 53.9706 25.5536 53.9411C26.3836 53.8852 27.1818 53.6438 27.9817 53.4333C28.4266 53.3162 28.8743 53.2061 29.3322 53.1531C29.6343 53.1182 29.8352 53.1051 30 52.9007C30.1519 53.354 30.3034 53.8073 30.4294 54.2671C30.5123 54.5703 30.5658 54.8958 30.5964 55.2284C30.5775 55.1265 30.5193 55.0292 30.4184 54.9646ZM35.9242 57.45C35.9079 57.4384 35.8629 57.428 35.7979 57.384C35.5894 57.2426 35.4067 57.0295 35.2503 56.8335C34.8371 56.3155 34.5165 55.797 34.1877 55.2252C34.036 54.9614 33.697 55.1553 33.733 55.4169C33.9316 56.8601 32.6089 57.7484 31.5731 58.4787C31.4961 58.5331 31.3774 58.596 31.2628 58.663C31.2848 58.54 31.3027 58.4134 31.3147 58.365C31.4852 57.6873 31.5835 57.0505 31.5989 56.3522C31.6146 55.6453 31.6038 54.9379 31.4204 54.2505C31.2199 53.4988 30.8822 52.7881 30.6412 52.0489C30.4375 51.4234 30.2217 50.6868 29.83 50.1488C29.79 50.0938 29.7464 50.0423 29.7011 49.9923C29.9918 49.9246 30.2719 49.8319 30.5467 49.7137C31.1468 49.4555 31.7469 49.3002 32.3631 49.1468C32.3717 49.1457 32.3802 49.1441 32.3889 49.1432C32.7852 49.0928 33.1803 49.0377 33.575 48.98C33.7029 49.137 33.7508 49.4843 33.8346 49.665C34.2206 50.4964 34.6773 51.2773 35.0081 52.1377C35.1683 52.5543 35.2751 52.9753 35.3604 53.4016C35.2509 53.4658 35.1422 53.5403 35.0313 53.629C34.5363 54.0252 35.0448 54.671 35.5669 54.5926C35.568 54.5992 35.5691 54.6058 35.57 54.6123C35.6953 55.3647 35.9368 56.102 35.9524 56.8703C35.9545 56.9631 35.973 57.3052 35.9242 57.45ZM54.5257 45.3119C54.5474 44.9933 54.3881 44.6648 53.9878 44.5403C54.0515 44.5603 53.9046 44.3697 53.8576 44.2413C53.7765 44.0196 53.7359 43.7817 53.6793 43.5532C53.6621 43.483 53.6481 43.4151 53.6338 43.347C53.6583 43.3712 53.6821 43.396 53.7081 43.4186C53.8409 43.5343 54.0128 43.6453 54.1865 43.6778C54.3917 43.9924 54.6799 44.2619 54.9767 44.4999C55.2539 44.7221 55.5813 44.9124 55.7994 45.1999C56.1962 45.7225 56.2358 46.1978 55.894 46.7371C55.6061 47.1913 55.3977 47.4368 54.8999 47.66C54.3333 47.914 53.7424 48.1257 53.1529 48.319C51.885 48.7347 50.5952 49.0865 49.3006 49.4078C48.0487 49.7186 46.7952 50.0317 45.5466 50.3557C44.3174 50.6748 43.1295 51.138 41.9074 51.4837C40.6473 51.84 39.3682 52.1398 38.1141 52.5154C37.5316 52.6898 36.9783 52.936 36.3795 53.0492C36.3289 53.0588 36.2805 53.0692 36.2321 53.0796C36.2144 53.0009 36.1991 52.9203 36.1806 52.8421C36.0753 52.3983 35.9264 51.9621 35.752 51.5336C35.9662 51.5005 36.1939 51.4743 36.2502 51.4607C36.5898 51.3793 36.9386 51.4804 37.2608 51.3914C37.9697 51.196 38.6788 50.9982 39.4093 50.8369C41.2228 50.4364 43.032 50.0014 44.7983 49.4241C46.5342 48.8566 48.2265 48.1102 49.9795 47.6056C51.3609 47.208 52.7221 46.7759 54.0124 46.1753C54.1858 46.1985 54.3659 46.1317 54.4712 45.9366C54.49 45.9019 54.5088 45.8671 54.5275 45.8324C54.6296 45.6428 54.6136 45.4559 54.5257 45.3119ZM52.2348 41.8354C52.079 42.6923 52.2001 43.5206 52.3594 44.3671C52.433 44.7589 52.5624 45.1627 52.7924 45.4788C52.5373 45.6033 52.2796 45.7277 51.9951 45.8151C51.181 46.0651 50.3698 46.3224 49.5539 46.5657C47.7651 47.0989 46.0353 47.8594 44.2603 48.4434C42.5362 49.0104 40.7722 49.4485 39.0042 49.8534C38.5679 49.9532 38.1282 50.0393 37.6927 50.1427C37.5429 50.1782 37.3652 50.1993 37.2255 50.2666C37.1577 50.2991 37.0199 50.4331 36.9607 50.4535C36.7135 50.5384 36.4663 50.4848 36.2065 50.6065C35.9681 50.7181 35.7408 50.852 35.5117 50.9813C35.2838 50.4845 35.0327 49.9983 34.7844 49.5254C34.6819 49.3299 34.5997 49.0798 34.5019 48.8365C34.6253 48.8168 34.7487 48.799 34.8723 48.7788C38.2433 48.2267 41.579 47.5438 44.8503 46.5534C45.0556 46.4913 45.017 46.1836 44.7997 46.1792C44.0527 46.1642 43.3218 46.3913 42.603 46.5706C41.8177 46.7663 41.0243 46.9143 40.2417 47.1233C38.5575 47.573 36.837 47.8401 35.1193 48.1298C34.8137 48.1813 34.5081 48.2303 34.2027 48.2787C34.0633 48.1021 33.885 47.9745 33.6357 47.948C33.2628 47.9084 32.8793 48.0915 32.5242 48.1765C31.9641 48.3107 31.4068 48.4114 30.8634 48.6106C30.4825 48.7502 30.1165 48.9377 29.7311 49.0654C29.4618 49.1188 29.1925 49.1707 28.9231 49.2224C28.8314 49.2314 28.7439 49.2404 28.6597 49.2555C28.5764 49.2105 28.4936 49.1659 28.4119 49.1216C28.2788 49.0492 28.1334 49.2248 28.247 49.3353C28.2534 49.3416 28.2601 49.3477 28.2668 49.3539C28.1084 49.387 27.95 49.4204 27.7922 49.4573C27.3584 49.5589 26.92 49.6524 26.4886 49.7623C26.0871 49.8646 25.71 50.0842 25.2971 50.1345C25.1285 50.155 25.1169 50.4075 25.2971 50.4066C25.9968 50.4029 26.7246 50.2266 27.4118 50.0988C27.597 50.0643 27.7819 50.0291 27.9669 49.9942C28.0488 50.2292 28.3088 50.4041 28.552 50.2231C28.6763 50.1306 28.8305 50.0942 28.9924 50.0753C29.0336 50.1297 29.0727 50.1852 29.1062 50.2437C29.3521 50.6725 29.4759 51.2147 29.6118 51.6852C29.6488 51.8137 29.6878 51.9414 29.7278 52.069C29.6763 52.0521 29.6228 52.0437 29.5682 52.049C28.2083 52.1821 26.9549 52.789 25.6035 52.9265C24.9753 52.9905 24.342 52.9251 23.7133 52.9817C23.635 52.9886 23.5347 53.007 23.4235 53.0287C22.8217 52.8125 22.2216 52.5764 21.6348 52.3371C21.0466 52.0973 20.6847 51.7339 20.4239 51.1554C20.0795 50.3916 20.1776 49.5186 20.196 48.7011C20.2152 47.8421 20.4352 47.159 21.0352 46.5367C21.5935 45.9576 22.1679 45.3808 22.8611 44.9629C23.6604 44.4809 24.5752 44.1741 25.4421 43.8376C26.2512 43.5234 27.0504 43.1568 27.8699 42.8739C28.2557 42.7408 28.6647 42.7058 29.0481 42.5757C29.1424 42.5437 29.2332 42.4967 29.3228 42.4436C29.6201 42.3969 29.9176 42.3519 30.2119 42.29C30.7315 42.1808 31.2326 42.0019 31.755 41.9022C32.3548 41.7878 32.9642 41.7747 33.5672 41.6853C34.7281 41.513 35.9108 41.3964 37.0632 41.1762C38.1732 40.9643 39.2243 40.472 40.336 40.3674C41.5311 40.2552 42.6549 39.6795 43.8594 39.5307C45.0816 39.3797 46.1845 39.0798 47.3711 38.7582C47.9276 38.6075 48.4994 38.5029 49.0679 38.4074C49.6352 38.312 50.2084 38.3645 50.7794 38.2888C51.9558 38.1329 53.082 37.6794 54.2449 37.4363C54.3607 37.4121 54.4773 37.3891 54.5943 37.3664C53.3404 38.5547 52.5546 40.0777 52.2348 41.8354ZM57.0375 34.3733C56.7612 34.7457 56.4842 35.1159 56.046 35.3087C55.0747 35.7362 53.8851 35.8035 52.8551 36.0581C52.9317 35.6092 52.8818 35.0995 52.9644 34.6734C53.0263 34.3541 53.0823 33.9874 53.2191 33.6887C53.3351 33.4355 53.5341 33.2365 53.6455 32.9794C53.7776 32.6746 53.8048 32.343 53.966 32.0474C54.1431 31.7231 54.4083 31.4666 54.6435 31.1868C54.861 30.928 55.0193 30.6313 55.228 30.3697C55.2499 30.3423 55.2736 30.3161 55.2975 30.2903C55.3924 30.4638 55.4851 30.6386 55.5741 30.8156C56.1183 31.8989 56.4597 33.1919 57.3788 34.0046C57.2577 34.1218 57.1368 34.2394 57.0375 34.3733Z" fill="white"/>
<path d="M42.6309 15.5885C42.0366 14.7288 41.796 13.7071 41.3257 12.7814C40.8277 11.8006 39.9881 11.0063 39.4436 10.0415C39.0242 9.29844 38.772 8.19512 38.096 7.64176C37.9462 7.51907 37.7596 7.47688 37.5832 7.57555C37.3116 7.72754 36.9685 7.58458 36.6842 7.57825C36.4232 7.57239 36.1608 7.61938 35.9032 7.65629C35.2539 7.74911 34.6344 7.927 33.9987 8.08051C32.6714 8.40102 31.3075 8.50414 29.9675 8.75387C27.185 9.27266 24.4856 10.4149 21.6566 10.5861C21.5798 10.5908 21.5259 10.6252 21.4936 10.6719C21.4497 10.5787 21.365 10.5029 21.2387 10.4881C21.0123 10.4618 20.9832 10.4698 20.761 10.5184C20.638 10.5452 20.5272 10.686 20.5361 10.8137C20.5647 11.2211 20.7028 11.5276 20.8773 11.894C21.112 12.3868 21.1405 12.888 21.327 13.3897C21.4619 13.7519 21.6891 14.011 21.7647 14.4002C21.8387 14.781 21.886 15.1826 22.0211 15.5484C22.1471 15.8894 22.3755 16.1511 22.5645 16.4554C22.8504 16.9158 22.9438 17.4532 23.1468 17.9502C23.3091 18.3473 23.5479 18.7111 23.6988 19.1121C23.8878 19.6145 23.9091 20.1712 24.0309 20.691C24.0597 20.8143 24.1707 20.9233 24.293 20.9533C24.5557 21.0176 24.7578 21.0154 25.0205 20.9443C25.3842 20.8456 25.67 20.8483 26.0397 20.8278C26.3537 20.8103 26.6558 20.6843 26.9661 20.64C27.3692 20.5825 27.7792 20.621 28.1848 20.5689C29.8668 20.3519 31.5447 20.0492 33.2164 19.7639C34.8565 19.4841 36.4808 19.1336 38.0861 18.6958C38.9073 18.4718 39.7293 18.2802 40.5666 18.1272C40.9914 18.0496 41.4158 17.9385 41.8484 17.9257C42.2527 17.9139 42.6195 17.9567 43.0232 17.8972C43.1784 17.8742 43.3043 17.7153 43.3454 17.5749C43.5603 16.8427 43.0225 16.1547 42.6309 15.5885ZM41.6036 17.0234C41.2569 17.0546 40.9186 17.1354 40.5777 17.2014C39.784 17.3552 38.9976 17.5136 38.2169 17.7264C36.6557 18.1518 35.0923 18.5352 33.4998 18.827C31.937 19.1134 30.3665 19.3641 28.7971 19.6134C28.0266 19.7357 27.2207 19.6814 26.4672 19.8741C26.1049 19.9668 25.786 19.9507 25.4226 19.9937C25.1906 20.0213 24.9459 20.18 24.7044 20.2246C24.6424 19.8541 24.6089 19.4761 24.5082 19.1158C24.4039 18.7428 24.2191 18.4066 24.0542 18.059C23.8446 17.6171 23.7242 17.1466 23.5352 16.6972C23.3588 16.2781 23.085 15.9775 22.8429 15.6034C22.4354 14.9738 22.5077 14.1626 22.1414 13.5142C21.8996 13.0864 21.8359 12.7496 21.7054 12.289C21.5888 11.8773 21.3225 11.5067 21.2047 11.0984C21.2161 11.098 21.2276 11.0976 21.2387 11.0971C21.3868 11.1133 21.4776 11.036 21.5127 10.9313C21.5458 10.9674 21.5938 10.9934 21.6566 10.9992C22.2943 11.0576 22.9034 11.1246 23.54 11.0242C24.293 10.9054 25.0418 10.7436 25.7928 10.6114C27.3222 10.3421 28.8243 9.93804 30.357 9.68738C31.7865 9.45371 33.233 9.32187 34.6377 8.9559C35.2927 8.78528 36.0047 8.55899 36.6844 8.53801C37.0906 8.52547 37.4115 8.56989 37.734 8.45012C37.9259 8.69891 38.0534 9.12301 38.1734 9.34906C38.3854 9.74879 38.5424 10.1775 38.772 10.5678C39.2556 11.3906 39.9048 12.1021 40.3981 12.909C40.9024 13.7341 41.0786 14.7152 41.532 15.5636C41.7309 15.9359 42.3366 16.5299 42.4538 17.0295C42.1709 17.0314 41.886 16.9979 41.6036 17.0234Z" fill="white"/>
<path d="M42.6328 44.5665C42.3032 44.7185 41.9419 44.7229 41.5914 44.7944C41.2391 44.8662 40.8937 44.9705 40.5413 45.0432C39.7896 45.1981 39.045 45.2791 38.3078 45.5024C37.5944 45.7186 36.8569 45.7911 36.1282 45.9361C35.314 46.0983 34.5118 46.2838 33.6882 46.3996C32.9806 46.499 32.353 46.7265 31.6638 46.8951C30.9645 47.0662 30.2431 47.1288 29.536 47.2573C27.9893 47.5384 26.3803 47.7136 24.8641 48.1282C24.7959 48.1469 24.8249 48.2466 24.8931 48.2331C26.4452 47.9261 28.0625 47.8323 29.632 47.6056C30.4156 47.4924 31.2158 47.4378 31.9826 47.2302C32.7269 47.0289 33.4256 46.8647 34.1933 46.7555C35.7698 46.5312 37.3517 46.1924 38.888 45.7866C39.6223 45.5925 40.3871 45.5347 41.1266 45.3584C41.6678 45.2295 42.3947 45.1931 42.8174 44.8058C42.9531 44.6814 42.7808 44.4984 42.6328 44.5665Z" fill="white"/>
<path d="M48.3541 40.8219C48.0487 41.0313 47.4349 41.1084 47.0845 41.2291C46.6985 41.3621 46.3068 41.4777 45.913 41.5842C45.0409 41.8202 44.1716 42.0282 43.2875 42.2107C42.3761 42.3989 41.4911 42.6389 40.5729 42.8064C39.5655 42.9903 38.5656 43.2138 37.5606 43.4096C35.5794 43.7956 33.5895 44.1378 31.6197 44.5801C30.6602 44.7955 29.7082 45.0517 28.741 45.2299C27.9667 45.3724 27.0427 45.3296 26.3332 45.6786C26.1529 45.7673 26.3106 46.029 26.4898 45.9465C26.9353 45.7413 27.6539 45.7433 28.135 45.6843C28.5482 45.6337 28.9586 45.5738 29.368 45.4969C30.3403 45.3144 31.2994 45.0632 32.2678 44.8613C34.2878 44.44 36.3252 44.111 38.3503 43.7169C39.3068 43.5308 40.26 43.3259 41.2227 43.1734C42.1295 43.0294 43.0009 42.7695 43.9011 42.5912C44.7784 42.4175 45.6568 42.1718 46.5134 41.915C47.1351 41.7286 48.0349 41.4972 48.5158 41.0313C48.6219 40.9283 48.4812 40.7347 48.3541 40.8219Z" fill="white"/>
<path d="M49.0047 39.8674C47.1692 39.5568 45.106 40.1867 43.3382 40.627C41.3405 41.1246 39.3479 41.5843 37.3773 42.1883C37.197 42.2435 37.2727 42.5244 37.4553 42.4716C39.3529 41.9217 41.2707 41.4979 43.1915 41.0435C44.1109 40.8259 45.0248 40.5964 45.9566 40.4363C46.9669 40.2628 47.9994 40.245 49.0048 40.0562C49.0973 40.0388 49.0991 39.8833 49.0047 39.8674Z" fill="white"/>
<path d="M51.7068 42.7884C51.2996 43.0182 50.5894 42.9956 50.1253 43.0932C49.5157 43.2216 48.91 43.3754 48.3016 43.5099C47.1002 43.7753 45.8866 44.0806 44.6597 44.2099C44.3949 44.2379 44.3906 44.6556 44.6597 44.6289C45.9766 44.4981 47.2589 44.1759 48.5515 43.9099C49.2402 43.7682 49.9192 43.5939 50.6019 43.4268C51.0032 43.3285 51.5594 43.2941 51.8452 42.968C51.9288 42.8726 51.8241 42.7224 51.7068 42.7884Z" fill="white"/>
<path d="M33.5439 42.6457C32.9137 42.5469 32.3496 42.7927 31.7427 42.9289C30.9395 43.109 30.1472 43.2453 29.3582 43.4934C27.7743 43.9913 26.0097 44.2456 24.5163 44.973C24.3236 45.0667 24.4921 45.3496 24.684 45.2595C26.1292 44.5799 27.8282 44.3909 29.3477 43.8979C30.0333 43.6755 30.7227 43.49 31.4326 43.3635C32.141 43.2372 32.7925 42.9065 33.5156 42.8541C33.6264 42.8459 33.6696 42.6655 33.5439 42.6457Z" fill="white"/>
<path d="M25.3305 47.0825C24.8109 46.9845 24.3077 47.32 23.8271 47.4747C23.0662 47.7197 22.3383 48.0918 21.5353 48.1292C21.468 48.1322 21.4697 48.2264 21.5353 48.2325C21.8166 48.2584 22.0911 48.3155 22.3721 48.2688C22.7065 48.2129 23.0304 48.0421 23.3585 47.9546C23.6783 47.8693 24.0063 47.8067 24.319 47.6955C24.6469 47.5789 24.945 47.3778 25.2964 47.3336C25.4253 47.3175 25.4863 47.1119 25.3305 47.0825Z" fill="white"/>
<path d="M26.8289 49.2958C26.0106 49.3043 25.2126 49.5562 24.428 49.7654C23.5482 50.0001 22.6461 50.1401 21.7734 50.4021C21.5861 50.4584 21.6647 50.7489 21.8545 50.6959C23.4944 50.2386 25.2032 49.9409 26.8659 49.5684C27.0196 49.5338 26.9842 49.2941 26.8289 49.2958Z" fill="white"/>
<path d="M27.6031 50.8612C27.2791 51.0787 26.8113 50.9754 26.442 51.0395C25.853 51.1415 25.2558 51.2888 24.6832 51.4588C24.4218 51.5364 24.5341 51.9487 24.796 51.8679C25.4224 51.6755 26.0814 51.5011 26.7297 51.4047C27.0971 51.3501 27.4899 51.3532 27.7515 51.0533C27.8375 50.9548 27.7253 50.7789 27.6031 50.8612Z" fill="white"/>
<path d="M4.63524 15.9842C4.58508 15.698 4.18032 15.7906 4.16286 16.0497C4.16075 16.0495 4.15887 16.0492 4.15688 16.049C4.12559 16.3095 3.97137 16.5856 3.89555 16.8383C3.79899 17.1603 3.71825 17.4861 3.61313 17.8054C3.45833 18.2765 3.23157 18.7765 3.57352 19.1968C3.63634 19.2741 3.77052 19.2624 3.83509 19.1968C4.21735 18.8088 4.32797 18.0156 4.43649 17.4933C4.53586 17.016 4.72032 16.4698 4.63524 15.9842Z" fill="white"/>
<path d="M5.12454 16.9688C4.86426 17.4795 4.60622 17.9849 4.35368 18.4989C4.18165 18.8492 3.82399 19.3457 4.10419 19.7152C4.16665 19.7972 4.25688 19.8298 4.35368 19.7805C4.70712 19.6006 4.90387 18.9861 5.04895 18.6326C5.24688 18.1502 5.45442 17.6744 5.65692 17.1931C5.7843 16.8897 5.27325 16.6771 5.12454 16.9688Z" fill="white"/>
<path d="M6.13522 18.5326C5.97773 18.2822 5.6803 18.2896 5.49503 18.4884C5.36495 18.6281 5.47148 18.8583 5.62863 18.8801C5.61445 18.9251 5.59827 18.9697 5.58187 19.0137C5.54378 19.1154 5.50206 19.2159 5.45835 19.315C5.35265 19.555 5.15156 19.9381 5.39437 20.1623C5.47277 20.2347 5.60906 20.2281 5.66366 20.1276C5.85269 19.7792 6.03116 19.4277 6.13827 19.0435C6.18327 18.8824 6.23097 18.6847 6.13522 18.5326Z" fill="white"/>
<path d="M11.0593 28.3995C11.0512 28.0689 10.5965 28.0874 10.5587 28.3995C10.4388 29.3882 9.678 30.3911 9.98421 31.3987C10.0681 31.6746 10.4255 31.6488 10.5194 31.3987C10.7048 30.9052 10.7704 30.3679 10.8911 29.8548C11.0054 29.3685 11.0716 28.9004 11.0593 28.3995Z" fill="white"/>
<path d="M12.1324 29.4981C12.1016 29.4833 12.0709 29.4684 12.04 29.4537C11.8313 29.3531 11.5933 29.5893 11.7245 29.7759C11.6302 30.012 11.4789 30.2166 11.383 30.4548C11.2579 30.7655 11.151 31.0568 10.9902 31.3515C10.7745 31.7469 10.6315 32.1368 10.8815 32.5501C10.9712 32.6984 11.175 32.7242 11.2994 32.604C11.3149 32.589 11.3305 32.5739 11.346 32.5589C11.4051 32.5016 11.4021 32.4237 11.3724 32.3544C11.2535 32.0776 11.7353 31.4638 11.83 31.1936C11.9178 30.9439 11.9356 30.6757 12.0228 30.4262C12.1034 30.1955 12.2035 30.0198 12.2459 29.777C12.2636 29.6754 12.2359 29.5479 12.1324 29.4981Z" fill="white"/>
<path d="M11.8755 32.0214C11.8666 32.3557 11.7419 32.6733 11.7499 33.0054C11.7573 33.3109 11.7944 33.6347 11.924 33.9133C11.9898 34.0546 12.1706 33.9867 12.2173 33.875C12.34 33.5829 12.3481 33.2242 12.4321 32.9164C12.5095 32.6331 12.5348 32.3134 12.5284 32.0214C12.5192 31.6011 11.8868 31.6008 11.8755 32.0214Z" fill="white"/>
<path d="M16.6541 42.3031C16.5531 42.5096 16.4034 42.6704 16.3397 42.8963C16.2656 43.1583 16.2605 43.4241 16.1632 43.6824C16.0075 44.0955 15.7218 44.5519 16.0257 44.9639C16.135 45.1117 16.3537 45.1378 16.4582 44.9639C16.6464 44.6497 16.7464 44.2249 16.861 43.8747C16.9158 43.7073 16.9425 43.5414 16.9676 43.3678C17.0106 43.0679 17.1091 42.8982 17.2228 42.6356C17.3872 42.2554 16.8435 41.9163 16.6541 42.3031Z" fill="white"/>
<path d="M17.9586 44.6982C17.9556 44.2796 17.3307 44.2832 17.3111 44.6982C17.2816 45.3278 17.0174 46.0192 17.3335 46.6039C17.4008 46.7287 17.5889 46.7229 17.6576 46.6039C17.9729 46.058 17.9633 45.3162 17.9586 44.6982Z" fill="white"/>
<path d="M34.303 38.2536C33.601 38.5399 32.8608 38.5166 32.12 38.611C31.3122 38.7139 30.4814 38.872 29.6914 39.0673C28.889 39.266 28.0867 39.4657 27.2835 39.6602C26.8427 39.7671 26.349 39.783 26.0112 40.1189C25.8535 40.2759 26.0896 40.5066 26.2536 40.3612C26.6529 40.0072 27.7014 40.0218 28.2139 39.9428C29.0179 39.8187 29.8046 39.6209 30.6068 39.4872C31.3908 39.3566 32.1699 39.2061 32.9578 39.1037C33.5167 39.0311 34.0316 38.9094 34.4803 38.5579C34.6207 38.4484 34.4682 38.1863 34.303 38.2536Z" fill="white"/>
<path d="M48.0032 35.7942C46.5102 35.9366 45.0864 36.3379 43.6197 36.6289C42.8468 36.7822 42.0544 36.799 41.2848 36.9329C40.5281 37.0644 39.7846 37.3755 39.048 37.5886C38.8631 37.642 38.9405 37.9252 39.1275 37.8772C42.0635 37.1216 45.2406 37.2998 48.0678 36.0324C48.1817 35.9812 48.1267 35.7824 48.0032 35.7942Z" fill="white"/>
<path d="M50.91 26.4281C50.6837 25.8298 50.4538 25.0561 50.0017 24.5901C49.9493 24.5361 49.8484 24.6086 49.8947 24.6726C50.3552 25.3067 50.4357 26.2399 50.7185 26.9631C50.8457 27.2886 51.1782 27.8523 50.9524 28.1705C50.807 28.3754 50.734 28.3009 50.5193 28.1955C50.4018 28.1379 50.2948 28.0562 50.1903 27.9785C48.9551 27.0572 48.2862 25.6208 47.7237 24.2296C47.4614 23.5811 47.117 22.9559 46.8902 22.2966C46.7606 21.9199 46.6355 21.5376 46.5322 21.1531C46.4945 21.0127 46.2107 20.256 46.2679 20.166C46.4108 19.9402 46.7278 20.428 46.8102 20.5093C47.1053 20.8013 47.4068 21.0067 47.6489 21.3556C48.0517 21.936 48.2896 22.6278 48.7031 23.1858C48.8221 23.3465 49.0949 23.1931 48.9756 23.0264C48.6612 22.5873 48.4699 22.0246 48.1792 21.5584C47.9155 21.1357 47.6782 20.7907 47.3056 20.4557C46.9197 20.1088 46.4979 19.33 45.8946 19.6398C45.8383 19.6688 45.7921 19.7446 45.7977 19.8089C45.8612 20.5443 46.208 21.3483 46.4804 22.0334C46.7606 22.7383 47.1543 23.3774 47.4538 24.072C48.0687 25.4979 48.6266 26.8813 49.7428 27.9936C50.0841 28.3337 51.0087 29.0904 51.3392 28.3499C51.6094 27.7448 51.116 26.9735 50.91 26.4281Z" fill="white"/>
<path d="M44.4486 11.8464C44.3575 11.7976 44.2046 11.8818 44.2528 11.997C44.4077 12.3677 44.4646 12.6958 44.459 13.0987C44.4582 13.1504 44.4701 13.4653 44.4089 13.4912C44.3415 13.5198 43.9972 13.0692 43.9596 13.0225C43.3794 12.3019 42.9719 11.4499 42.6024 10.6078C42.4996 10.3735 42.1598 10.5763 42.2594 10.8083C42.5625 11.5134 42.8918 12.213 43.3209 12.8518C43.5425 13.1816 43.9652 13.9176 44.4275 13.9492C45.2322 14.004 44.9487 12.114 44.4486 11.8464Z" fill="white"/>
</svg>
