<svg width="60" height="60" viewBox="0 0 60 60" fill="none" xmlns="http://www.w3.org/2000/svg">
<g clip-path="url(#clip0_19_561)">
<path d="M59.1088 12.7698C59.5944 12.7698 59.988 12.3763 59.988 11.8906V10.5578C59.988 8.90946 58.6471 7.56849 56.9987 7.56849H48.7083V2.28595C48.7083 1.02551 47.6828 0 46.4224 0H13.5774C12.3169 0 11.2914 1.02551 11.2914 2.28595V7.56849H3.00104C1.35269 7.56849 0.0117188 8.90946 0.0117188 10.5578V43.6467C0.0117188 45.295 1.35269 46.636 3.00104 46.636H5.02792C5.51347 46.636 5.90713 46.2424 5.90713 45.7568C5.90713 45.2711 5.51347 44.8776 5.02792 44.8776H3.00104C2.32229 44.8776 1.77014 44.3254 1.77014 43.6467V38.8176H58.2296V43.6467C58.2296 44.3254 57.6775 44.8776 56.9987 44.8776H9.1309C8.64534 44.8776 8.25169 45.2711 8.25169 45.7568C8.25169 46.2424 8.64534 46.636 9.1309 46.636H23.8473L23.1261 52.1064H20.0787C18.4304 52.1064 17.0894 53.4474 17.0894 55.0958V58.652C17.0894 59.3953 17.6942 60.0001 18.4375 60.0001H41.5623C42.3057 60.0001 42.9105 59.3953 42.9105 58.652V55.0958C42.9105 53.4474 41.5695 52.1064 39.9211 52.1064H36.8737L36.1525 46.636H56.9987C58.6471 46.636 59.988 45.295 59.988 43.6467V15.9936C59.988 15.5079 59.5944 15.1144 59.1088 15.1144C58.6233 15.1144 58.2296 15.5079 58.2296 15.9936V37.059H1.77014V10.5578C1.77014 9.87906 2.32229 9.32691 3.00104 9.32691H11.2914V30.8867H10.3667C9.88116 30.8867 9.48751 31.2802 9.48751 31.7659C9.48751 32.2516 9.88116 32.6451 10.3667 32.6451H49.633C50.1186 32.6451 50.5122 32.2516 50.5122 31.7659C50.5122 31.2802 50.1186 30.8867 49.633 30.8867H48.7083V9.32691H56.9987C57.6775 9.32691 58.2296 9.87906 58.2296 10.5578V11.8906C58.2296 12.3761 58.6233 12.7698 59.1088 12.7698V12.7698ZM41.1519 55.0956V58.2416H18.8478V55.0956C18.8478 54.4169 19.4 53.8647 20.0787 53.8647H39.9211C40.5998 53.8647 41.1519 54.4169 41.1519 55.0956ZM35.1 52.1063H24.8997L25.6209 46.6359H34.3788L35.1 52.1063ZM13.5774 1.75842H46.4224C46.7132 1.75842 46.9499 1.99511 46.9499 2.28595V3.77369H43.123C42.6002 3.29611 41.9048 3.00444 41.1425 3.00444C40.3803 3.00444 39.6849 3.29622 39.1621 3.77369H13.0498V2.28595C13.0498 1.99511 13.2865 1.75842 13.5774 1.75842ZM42.3237 6.48554H39.9613V5.94394C39.9613 5.29262 40.4912 4.76287 41.1425 4.76287C41.7939 4.76287 42.3237 5.29274 42.3237 5.94394V6.48554ZM39.9613 8.24396H42.3237V24.258L41.1425 26.3385L39.9613 24.258V8.24396ZM13.0498 30.8867V5.53212H38.2323C38.2134 5.66681 38.2029 5.80409 38.2029 5.94394V7.38315H29.5568C29.0712 7.38315 28.6775 7.77669 28.6775 8.26236C28.6775 8.74804 29.0712 9.14158 29.5568 9.14158H38.2029V10.9H29.5568C29.0712 10.9 28.6775 11.2935 28.6775 11.7792C28.6775 12.2649 29.0712 12.6584 29.5568 12.6584H38.2029V14.4168H29.5568C29.0712 14.4168 28.6775 14.8104 28.6775 15.2961C28.6775 15.7817 29.0712 16.1753 29.5568 16.1753H38.2029V17.9337H29.5568C29.0712 17.9337 28.6775 18.3272 28.6775 18.8129C28.6775 19.2986 29.0712 19.6921 29.5568 19.6921H38.2029V22.5501H17.2654C16.7798 22.5501 16.3862 22.9437 16.3862 23.4294C16.3862 23.915 16.7798 24.3086 17.2654 24.3086H38.2029V24.3664C38.2029 24.5991 38.2636 24.8292 38.3788 25.0321L40.1741 28.1944C40.3716 28.5421 40.7427 28.7581 41.1425 28.7581C41.5424 28.7581 41.9134 28.5421 42.111 28.1943L43.9063 25.0321C43.9063 25.032 43.9064 25.0319 43.9064 25.0317C44.0213 24.8292 44.082 24.5992 44.082 24.3664V5.94394C44.082 5.8042 44.0716 5.66681 44.0526 5.53212H46.9498V30.8866H13.0498V30.8867Z" fill="white"/>
<path d="M32.6146 42.727C33.1002 42.727 33.4938 42.3335 33.4938 41.8478C33.4938 41.3621 33.1002 40.9686 32.6146 40.9686H27.3853C26.8998 40.9686 26.5061 41.3621 26.5061 41.8478C26.5061 42.3335 26.8998 42.727 27.3853 42.727H32.6146Z" fill="white"/>
<path d="M26.7125 26.0669H17.2659C16.7804 26.0669 16.3867 26.4604 16.3867 26.9461C16.3867 27.4318 16.7804 27.8253 17.2659 27.8253H26.7125C27.1981 27.8253 27.5917 27.4318 27.5917 26.9461C27.5917 26.4604 27.1981 26.0669 26.7125 26.0669Z" fill="white"/>
<path d="M17.7347 19.6919H25.5126C26.2559 19.6919 26.8607 19.0871 26.8607 18.3438V8.73106C26.8607 7.98771 26.2559 7.38293 25.5126 7.38293H17.7347C16.9914 7.38293 16.3866 7.98771 16.3866 8.73106V18.3438C16.3866 19.0871 16.9914 19.6919 17.7347 19.6919ZM18.145 9.14136H25.1023V17.9335H18.145V9.14136Z" fill="white"/>
</g>
<defs>
<clipPath id="clip0_19_561">
<rect width="60" height="60" fill="white"/>
</clipPath>
</defs>
</svg>
