<svg width="57" height="57" viewBox="0 0 57 57" fill="none" xmlns="http://www.w3.org/2000/svg">
<g clip-path="url(#clip0_19_567)">
<path d="M56.0147 8.32171C54.895 6.40982 52.8016 5.32802 50.4121 5.4271C47.9239 5.53064 45.6072 6.90358 44.0964 9.09936C42.5857 6.90347 40.2691 5.53064 37.7812 5.4271C35.3925 5.32746 33.2988 6.40982 32.1792 8.3216C31.108 10.1507 30.9066 12.793 31.5997 15.4136C28.4847 16.6716 25.8468 19.0045 24.01 22.116C22.7301 19.9514 21.0473 18.1403 19.0814 16.8245C16.88 15.3509 14.3801 14.5163 11.8526 14.4111C7.55377 14.2316 3.79311 16.168 1.78882 19.5898C0.673834 21.4936 0.0565024 23.9407 0.00350877 26.6663C-0.0534928 29.5923 0.561612 32.7029 1.78214 35.6619C1.91506 35.9841 2.22624 36.1787 2.55444 36.1787C2.66043 36.1787 2.76842 36.1583 2.87251 36.1153C3.2988 35.9394 3.50176 35.4513 3.32596 35.025C1.15668 29.7659 1.11894 24.0384 3.22989 20.4337C4.91633 17.5544 8.11142 15.927 11.7831 16.0795C14.0037 16.172 16.2062 16.9095 18.1525 18.2122C20.2836 19.6385 22.0488 21.7263 23.2571 24.2495C23.396 24.5394 23.6889 24.7238 24.0103 24.7238C24.3317 24.7238 24.6246 24.5393 24.7633 24.2495C26.3947 20.8438 28.9924 18.2973 32.133 16.9998C32.9227 18.9396 34.1627 20.7243 35.8281 22.3111C37.909 24.294 40.5942 25.8975 43.8088 27.0772C43.9016 27.1113 43.999 27.1283 44.0964 27.1283C44.1939 27.1283 44.2912 27.1113 44.384 27.0772C45.0572 26.8303 45.7073 26.5634 46.3349 26.2787C46.5247 30.6084 45.0762 35.3671 42.2718 39.52C38.4402 45.1943 32.1295 49.7897 24.0103 52.8219C20.446 51.4917 17.2284 49.8662 14.4215 47.9791L17.2718 46.9996C18.1347 46.703 18.6923 45.9218 18.6923 45.0093C18.6923 44.0969 18.1347 43.3157 17.2718 43.0191L13.4673 41.7117C13.3398 41.6678 13.2415 41.5695 13.1976 41.442L11.8902 37.6375C11.5938 36.7746 10.8125 36.217 9.90007 36.217C9.90007 36.217 9.90007 36.217 9.89996 36.217C8.9876 36.217 8.20628 36.7746 7.90969 37.6375L6.77578 40.9368C6.02675 39.9668 5.34952 38.959 4.75601 37.929C4.52567 37.5294 4.01522 37.3922 3.61565 37.6224C3.21608 37.8526 3.07881 38.3632 3.30893 38.7628C3.94886 39.8734 4.6802 40.9587 5.4888 42.0017L2.52817 43.0192C1.66524 43.3158 1.10758 44.097 1.10758 45.0095C1.10758 45.9219 1.66524 46.7031 2.52817 46.9997L6.33257 48.3071C6.46016 48.3509 6.55847 48.4491 6.60233 48.5768L7.90947 52.3814C8.20606 53.2443 8.98738 53.8019 9.89985 53.8019C10.8123 53.8019 11.5935 53.2443 11.89 52.3814L13.0338 49.0528C16.1333 51.1995 19.723 53.0292 23.7226 54.4964C23.8155 54.5305 23.9128 54.5475 24.0102 54.5475C24.1076 54.5475 24.205 54.5305 24.2979 54.4964C28.8295 52.8334 32.8288 50.7118 36.1848 48.1906C39.2112 45.9171 41.7248 43.3144 43.6557 40.4549C46.8143 35.7774 48.365 30.3523 47.9564 25.4738C48.9713 24.9233 49.9129 24.3193 50.7733 23.6643C51.1403 23.3848 51.2113 22.861 50.9318 22.4941C50.6526 22.1272 50.1286 22.0561 49.7616 22.3355C48.1668 23.5499 46.2619 24.581 44.0966 25.4024C40.8563 24.1688 35.4581 21.3615 33.4973 15.8986C32.6153 13.4417 32.6635 10.7989 33.6201 9.16571C34.4221 7.79634 35.9511 7.02281 37.7117 7.09573C39.538 7.17177 41.9765 8.26983 43.3432 11.1239C43.482 11.4138 43.7749 11.5983 44.0963 11.5983C44.4177 11.5983 44.7107 11.4138 44.8495 11.1239C46.2161 8.26983 48.655 7.17177 50.4816 7.09573C52.241 7.02192 53.7717 7.79623 54.5737 9.16571C55.9867 11.5786 55.5986 16.2621 52.0959 20.1892C51.7889 20.5333 51.8191 21.0611 52.1632 21.3681C52.5073 21.6751 53.0351 21.6449 53.3421 21.3007C55.2377 19.1755 56.4531 16.7143 56.8571 14.1834C57.2097 11.9744 56.9026 9.83782 56.0147 8.32171V8.32171ZM11.6181 48.0342L10.3108 51.8386C10.2198 52.1034 9.99303 52.1319 9.89996 52.132C9.80666 52.132 9.57988 52.1034 9.48892 51.8386L8.18167 48.0344C7.96948 47.4164 7.4932 46.9403 6.87531 46.728L3.07091 45.4206C2.80616 45.3296 2.77755 45.103 2.77755 45.0097C2.77755 44.9164 2.80616 44.6896 3.07091 44.5986L6.87531 43.2913C7.49331 43.079 7.96948 42.6027 8.18156 41.985L9.48892 38.1806C9.57988 37.9159 9.80666 37.8873 9.89985 37.8873H9.89996C9.99314 37.8873 10.2198 37.9159 10.3108 38.1806L11.6181 41.985C11.8304 42.6029 12.3067 43.079 12.9244 43.2913L16.7288 44.5986C16.9935 44.6896 17.0221 44.9164 17.0221 45.0097C17.0221 45.103 16.9935 45.3296 16.7288 45.4206L12.9244 46.728C12.3066 46.9402 11.8304 47.4163 11.6181 48.0342V48.0342Z" fill="white"/>
<path d="M21.1012 15.2046C21.194 15.2387 21.2914 15.2557 21.3889 15.2557C21.4863 15.2557 21.5837 15.2387 21.6765 15.2046C23.6667 14.4742 27.1996 12.7077 28.5005 9.08343C29.1245 7.3451 29.0594 5.49233 28.3306 4.24798C27.6378 3.0652 26.3521 2.39576 24.882 2.45655C23.542 2.51233 22.2866 3.17508 21.3889 4.25344C20.4911 3.17497 19.2357 2.51233 17.8957 2.45655C16.4266 2.39487 15.1398 3.0652 14.4471 4.24798C13.7184 5.49222 13.6532 7.3451 14.2772 9.08343C15.5782 12.7077 19.1111 14.4742 21.1012 15.2046V15.2046ZM15.8882 5.09198C16.2467 4.47999 16.9243 4.12273 17.7155 4.12273C17.7521 4.12273 17.7892 4.12351 17.8263 4.12507C19.0009 4.17395 20.0512 4.93178 20.6357 6.1523C20.7745 6.44221 21.0674 6.62657 21.3889 6.62657C21.7103 6.62657 22.0032 6.4421 22.142 6.1523C22.7265 4.93178 23.7769 4.17395 24.9515 4.12507C25.7881 4.09 26.5143 4.45161 26.8895 5.09198C27.2526 5.71187 27.4807 6.98138 26.9287 8.5192C25.9149 11.3439 23.1387 12.8411 21.3889 13.5277C19.6391 12.8411 16.8629 11.3439 15.849 8.5192C15.2972 6.98138 15.5253 5.71187 15.8882 5.09198V5.09198Z" fill="white"/>
</g>
<defs>
<clipPath id="clip0_19_567">
<rect width="57" height="57" fill="white"/>
</clipPath>
</defs>
</svg>
