<svg width="57" height="57" viewBox="0 0 57 57" fill="none" xmlns="http://www.w3.org/2000/svg">
<g clip-path="url(#clip0_17_351)">
<path d="M41.7888 41.5381H40.1173V51.6789C40.1173 53.079 40.6647 54.3529 41.5555 55.3006H8.63635V56.9721H45.4105C48.3292 56.9721 50.7038 54.5975 50.7038 51.6789V44.1569H41.7888V41.5381ZM49.0322 45.8284V51.6789C49.0322 53.6759 47.4075 55.3006 45.4105 55.3006C43.4136 55.3006 41.7888 53.6759 41.7888 51.6789V45.8284H49.0322Z" fill="white"/>
<path d="M1.76995 52.5147H30.9238V50.8431H1.67155V23.5808H0V51.6789C0 54.5975 2.37461 56.9721 5.29326 56.9721H6.96481V55.3006H5.29326C3.58392 55.3006 2.14839 54.1099 1.76995 52.5147Z" fill="white"/>
<path d="M1.67155 1.69942H16.5643V0.0278625H0V21.9093H1.67155V1.69942Z" fill="white"/>
<path d="M40.1173 14.6818H41.7888V0.0278625H18.2358V1.69942H40.1173V14.6818Z" fill="white"/>
<path d="M24.7947 8.94281H30.3665V10.6144H24.7947V8.94281Z" fill="white"/>
<path d="M5.85046 8.94281H11.4223V10.6144H5.85046V8.94281Z" fill="white"/>
<path d="M32.0381 8.94281H35.9384V10.6144H32.0381V8.94281Z" fill="white"/>
<path d="M13.0939 8.94281H23.1232V10.6144H13.0939V8.94281Z" fill="white"/>
<path d="M5.85046 14.5147H9.75076V16.1862H5.85046V14.5147Z" fill="white"/>
<path d="M18.6656 14.5147H28.695V16.1862H18.6656V14.5147Z" fill="white"/>
<path d="M30.3666 14.5147H35.9384V16.1862H30.3666V14.5147Z" fill="white"/>
<path d="M11.4222 14.5147H16.9941V16.1862H11.4222V14.5147Z" fill="white"/>
<path d="M5.85046 20.0865H12.5367V21.7581H5.85046V20.0865Z" fill="white"/>
<path d="M14.2083 20.0865H18.1085V21.7581H14.2083V20.0865Z" fill="white"/>
<path d="M5.85046 25.6584H9.75076V27.3299H5.85046V25.6584Z" fill="white"/>
<path d="M11.4222 25.6584H18.1085V27.3299H11.4222V25.6584Z" fill="white"/>
<path d="M5.85046 31.2302H12.5367V32.9018H5.85046V31.2302Z" fill="white"/>
<path d="M14.2083 31.2302H18.1085V32.9018H14.2083V31.2302Z" fill="white"/>
<path d="M11.4222 36.8021H18.1085V38.4736H11.4222V36.8021Z" fill="white"/>
<path d="M5.85046 36.8021H9.75076V38.4736H5.85046V36.8021Z" fill="white"/>
<path d="M5.85046 42.3739H13.2053V44.0455H5.85046V42.3739Z" fill="white"/>
<path d="M50.6333 35.2096H57V36.8812H50.6333V35.2096Z" fill="white"/>
<path d="M45.8493 23.3973L44.4572 22.7551L48.9751 18.2371C49.4488 17.7635 49.7095 17.1339 49.7095 16.4642C49.7095 15.7944 49.4486 15.1648 48.9751 14.6912L48.1872 13.9032C47.2096 12.9258 45.6189 12.9258 44.6414 13.9032L38.6491 19.8955L28.8862 19.6028L22.1681 22.7786L20.9756 31.2454L21.658 36.8865L21.1829 37.3617L19.016 43.8626L25.5168 41.6957L26.4234 40.7892C27.0607 41.4004 27.9241 41.7772 28.8744 41.7772C28.9261 41.7772 28.978 41.7761 29.0297 41.7738L34.0974 41.5569L39.8584 39.9438L45.3269 36.8814H48.962V35.2099H44.8908L39.2156 38.3879L33.8329 39.8951L28.9576 40.1038C27.8866 40.1495 27.0003 39.2915 27.0003 38.2287C27.0003 37.7388 27.1882 37.2748 27.5296 36.9223C27.8707 36.5699 28.3281 36.3674 28.8177 36.3516L33.3438 36.2082L36.4799 35.0791L39.5379 31.1871L37.7817 29.431L43.1976 24.015L45.4825 25.069H57.0001V23.3974H45.8493V23.3973ZM45.8233 15.0852C46.1492 14.7595 46.6794 14.7594 47.0052 15.0852L47.7931 15.8732C47.951 16.031 48.038 16.241 48.038 16.4642C48.038 16.6874 47.951 16.8973 47.7931 17.0551L46.4141 18.4341L44.4442 16.4643L45.8233 15.0852ZM24.6137 40.2346L21.6587 41.2197L22.5531 38.5364L22.5779 38.5369C22.6291 38.5381 22.6818 38.5393 22.7331 38.5393C23.6989 38.5393 24.6042 38.2454 25.3621 37.7418C25.3401 37.902 25.3284 38.0643 25.3284 38.2284C25.3284 38.6167 25.392 38.9904 25.5077 39.3404L24.6137 40.2346ZM26.0032 31.5867L25.829 33.9867C25.7263 35.3981 24.6754 36.5424 23.3324 36.809L22.6613 31.2619L23.6976 23.9046L29.2375 21.2857L37.0254 21.5193L33.035 25.5097L27.0183 26.5124L26.0032 31.5867ZM31.0013 27.5432L27.8953 30.6492L28.4309 27.9715L31.0013 27.5432ZM35.4619 33.6688L33.0262 34.5456L32.655 34.5574L36.5996 30.6128L37.3071 31.3204L35.4619 33.6688ZM30.2135 34.6347L28.7642 34.6808C28.2615 34.6968 27.7772 34.8178 27.3359 35.0309C27.4182 34.7339 27.4729 34.4253 27.496 34.1079L27.5505 33.3579L43.2622 17.6462L45.2321 19.616L30.2135 34.6347Z" fill="white"/>
<path d="M32.7068 50.8431H34.3783V52.5147H32.7068V50.8431Z" fill="white"/>
<path d="M36.0498 50.8431H37.7214V52.5147H36.0498V50.8431Z" fill="white"/>
<path d="M14.8768 42.3739H16.5484V44.0455H14.8768V42.3739Z" fill="white"/>
</g>
<defs>
<clipPath id="clip0_17_351">
<rect width="57" height="57" fill="white"/>
</clipPath>
</defs>
</svg>
